<svg version="1.1" xmlns="http://www.w3.org/2000/svg" xmlns:xlink="http://www.w3.org/1999/xlink" width="214.98528" height="214.9928" viewBox="0,0,214.98528,214.9928"><defs><radialGradient cx="240" cy="180" r="106.5" gradientUnits="userSpaceOnUse" id="color-1"><stop offset="0" stop-color="#976afe"/><stop offset="1" stop-color="#9966ff"/></radialGradient></defs><g transform="translate(-132.50736,-72.49985)"><g data-paper-data="{&quot;isPaintingLayer&quot;:true}" fill-rule="nonzero" stroke="#000000" stroke-width="2" stroke-linecap="butt" stroke-linejoin="miter" stroke-miterlimit="10" stroke-dasharray="" stroke-dashoffset="0" style="mix-blend-mode: normal"><g data-paper-data="{&quot;index&quot;:null}"><path d="M238.74807,73.50736c58.81425,-0.69142 107.05315,46.42646 107.74458,105.24071c0.69142,58.81425 -46.42646,107.05315 -105.24071,107.74458c-58.81425,0.69142 -107.05315,-46.42646 -107.74458,-105.24071c-0.69142,-58.81425 46.42646,-107.05315 105.24071,-107.74458z" data-paper-data="{&quot;index&quot;:null}" fill="url(#color-1)"/><g data-paper-data="{&quot;index&quot;:null}"><path d="M285.28407,125.86271c12.14943,-0.14283 22.11427,9.59044 22.2571,21.73986c0.14283,12.14943 -9.59044,22.11427 -21.73986,22.2571c-12.14943,0.14283 -22.11427,-9.59044 -22.2571,-21.73986c-0.14283,-12.14943 9.59044,-22.11427 21.73986,-22.2571z" fill="#ffffff"/><path d="M295.89452,141.04927c3.5677,-0.04194 6.49579,2.97692 6.54006,6.74283c0.04427,3.76591 -2.81203,6.85278 -6.37974,6.89472c-3.5677,0.04194 -6.49578,-2.97693 -6.54005,-6.74284c-0.04427,-3.76591 2.81202,-6.85277 6.37973,-6.89472z" fill="#000000"/></g><g data-paper-data="{&quot;index&quot;:null}"><path d="M286.0426,188.28336c12.14943,-0.14283 22.11427,9.59044 22.2571,21.73986c0.14283,12.14943 -9.59044,22.11427 -21.73986,22.2571c-12.14943,0.14283 -22.11427,-9.59044 -22.2571,-21.73986c-0.14283,-12.14943 9.59044,-22.11427 21.73986,-22.2571z" fill="#ffffff"/><path d="M296.65305,203.46993c3.5677,-0.04194 6.49578,2.97692 6.54006,6.74283c0.04427,3.76591 -2.81203,6.85278 -6.37973,6.89473c-3.5677,0.04194 -6.49578,-2.97693 -6.54006,-6.74284c-0.04427,-3.76591 2.81203,-6.85277 6.37973,-6.89472z" fill="#000000"/></g><path d="M327.86834,204.5634c-4.95514,0.05825 -9.07786,-8.89246 -9.20834,-19.99197c-0.13049,-11.09952 3.78067,-20.14467 8.73581,-20.20293c4.95514,-0.05825 9.07786,8.89246 9.20834,19.99197c0.13049,11.09952 -3.78067,20.14467 -8.73581,20.20293z" data-paper-data="{&quot;index&quot;:null}" fill="#000000"/></g></g></g></svg>